<?xml version="1.0" standalone="no"?>
<!DOCTYPE svg PUBLIC "-//W3C//DTD SVG 20010904//EN"
 "http://www.w3.org/TR/2001/REC-SVG-20010904/DTD/svg10.dtd">
<svg version="1.0" xmlns="http://www.w3.org/2000/svg"
 width="1417.000000pt" height="1417.000000pt" viewBox="0 0 1417.000000 1417.000000"
 preserveAspectRatio="xMidYMid meet">

<g transform="translate(0.000000,1417.000000) scale(0.100000,-0.100000)"
fill="#000000" stroke="none">
<path d="M0 7085 l0 -7085 7085 0 7085 0 0 7085 0 7085 -7085 0 -7085 0 0
-7085z m9987 2456 c9 -14 28 -19 81 -23 51 -4 78 -11 97 -27 19 -14 42 -21 70
-21 29 0 47 -6 60 -20 12 -13 31 -20 55 -20 21 0 48 -8 61 -19 13 -10 35 -22
49 -26 14 -4 36 -16 49 -26 13 -11 34 -19 46 -19 12 0 30 -9 40 -20 10 -11 30
-20 45 -20 15 0 35 -9 45 -20 10 -11 28 -20 40 -20 12 0 32 -11 45 -25 13 -14
35 -25 49 -25 15 0 31 -8 39 -20 7 -11 23 -20 36 -20 12 0 31 -9 41 -20 10
-11 28 -20 41 -20 12 0 36 -11 52 -25 17 -14 39 -25 49 -25 11 0 28 -9 38 -20
10 -11 27 -20 38 -20 10 0 32 -11 49 -25 16 -14 36 -25 43 -25 18 0 87 -47 98
-66 4 -8 21 -14 37 -14 19 0 34 -7 42 -20 7 -11 23 -20 35 -20 12 0 35 -11 51
-25 17 -14 39 -25 49 -25 11 0 28 -9 38 -20 10 -11 28 -20 40 -20 12 0 30 -9
39 -19 10 -11 29 -22 43 -26 15 -3 38 -15 51 -26 14 -10 35 -19 47 -19 12 0
30 -9 40 -20 10 -11 26 -20 35 -20 9 0 31 -11 50 -25 19 -14 40 -25 48 -25 8
0 25 -9 39 -20 14 -11 33 -20 43 -20 10 0 29 -9 43 -20 14 -11 36 -20 50 -20
13 0 32 -8 41 -19 9 -10 35 -22 58 -25 22 -4 53 -16 68 -26 16 -11 37 -20 47
-20 11 0 28 -8 37 -19 10 -11 36 -21 62 -24 25 -2 53 -12 62 -20 9 -9 40 -19
67 -23 27 -3 61 -15 74 -25 17 -14 40 -19 85 -19 33 0 98 -3 144 -7 l82 -6 0
-58 c0 -45 -3 -59 -14 -59 -8 0 -21 -8 -28 -17 -14 -19 -89 -73 -102 -73 -4 0
-29 -18 -55 -40 -26 -22 -53 -40 -60 -40 -8 0 -47 -29 -88 -65 -41 -36 -80
-65 -88 -65 -8 0 -83 -67 -167 -148 -226 -219 -306 -292 -319 -292 -7 0 -110
-98 -229 -217 -359 -361 -610 -601 -634 -607 -12 -3 -62 -44 -112 -91 -49 -47
-97 -85 -108 -85 -10 0 -28 -10 -40 -22 -47 -49 -119 -108 -132 -108 -8 0 -39
-20 -70 -45 -30 -25 -61 -45 -68 -45 -7 0 -33 -18 -57 -40 -24 -22 -52 -40
-63 -40 -10 0 -31 -11 -48 -25 -16 -14 -36 -25 -44 -25 -8 0 -37 -18 -65 -40
-28 -22 -59 -40 -69 -40 -9 0 -29 -9 -44 -21 -15 -12 -44 -23 -66 -26 -22 -3
-47 -14 -56 -24 -9 -11 -29 -19 -44 -19 -15 0 -35 -9 -45 -20 -10 -11 -28 -20
-40 -20 -11 0 -36 -11 -55 -25 -22 -16 -47 -25 -70 -25 -24 0 -43 -7 -55 -20
-13 -14 -31 -20 -62 -20 -29 0 -49 -6 -62 -19 -11 -11 -41 -22 -72 -26 -30 -4
-65 -16 -78 -26 -17 -14 -40 -19 -86 -19 -49 0 -66 -4 -80 -20 -14 -16 -31
-20 -80 -20 -45 0 -69 -5 -86 -19 -19 -14 -50 -20 -139 -25 -87 -5 -119 -11
-133 -24 -17 -15 -52 -17 -300 -21 -219 -2 -286 -6 -302 -17 -27 -19 -173 -19
-201 0 -15 11 -84 15 -326 17 -268 4 -308 6 -324 21 -15 12 -49 18 -149 23
-98 6 -136 12 -155 25 -14 10 -53 20 -88 23 -34 3 -74 12 -87 21 -13 9 -43 16
-67 16 -27 0 -49 7 -62 19 -15 13 -49 22 -115 30 l-94 12 -27 -33 c-17 -20
-30 -50 -34 -77 -3 -25 -13 -52 -22 -62 -9 -10 -18 -37 -21 -61 -3 -24 -13
-56 -23 -73 -10 -16 -20 -50 -24 -74 -4 -24 -16 -55 -26 -69 -11 -14 -20 -40
-20 -61 0 -20 -9 -47 -20 -61 -11 -14 -20 -37 -20 -51 0 -14 -9 -34 -20 -44
-14 -13 -20 -31 -20 -64 0 -28 -10 -65 -25 -96 -13 -27 -25 -65 -25 -83 0 -19
-9 -45 -20 -59 -13 -17 -20 -41 -20 -68 0 -28 -6 -47 -19 -59 -11 -10 -21 -37
-25 -65 -4 -27 -13 -54 -21 -61 -8 -7 -17 -27 -21 -45 -3 -19 -15 -41 -25 -51
-10 -9 -19 -30 -19 -45 0 -22 -6 -30 -25 -35 -36 -9 -51 0 -58 33 -3 15 -15
39 -26 52 -17 19 -21 38 -21 88 0 50 -5 71 -20 90 -18 24 -20 41 -20 226 0
178 2 203 19 231 15 26 20 57 23 184 4 117 8 156 20 170 11 12 18 51 23 126 5
86 11 115 26 134 14 18 19 41 19 87 0 48 5 68 21 89 12 15 19 37 17 53 -3 26
-7 28 -55 33 -37 4 -59 12 -73 28 -17 18 -32 22 -79 22 -43 0 -65 5 -84 20
-15 12 -40 20 -65 20 -23 0 -49 8 -63 18 -13 11 -46 22 -72 25 -27 4 -60 16
-74 27 -20 16 -41 20 -96 20 -50 0 -78 5 -101 19 -23 14 -58 20 -138 24 -75 3
-113 10 -129 21 -20 14 -63 16 -318 16 -256 0 -297 -2 -312 -16 -14 -12 -48
-17 -146 -21 -104 -4 -133 -8 -155 -24 -21 -15 -45 -19 -106 -19 -66 0 -84 -4
-106 -21 -15 -12 -48 -24 -74 -27 -26 -3 -58 -13 -71 -23 -13 -11 -40 -19 -61
-19 -22 0 -48 -8 -63 -20 -14 -11 -39 -20 -57 -20 -17 0 -52 -11 -78 -25 -26
-14 -61 -25 -78 -25 -18 0 -38 -8 -49 -20 -10 -11 -28 -20 -40 -20 -12 0 -34
-9 -48 -20 -14 -11 -40 -20 -60 -20 -23 0 -43 -8 -61 -25 -15 -14 -38 -25 -51
-25 -14 0 -29 -8 -35 -20 -6 -12 -21 -20 -36 -20 -15 0 -39 -11 -56 -25 -16
-14 -37 -25 -47 -25 -10 0 -26 -9 -36 -20 -10 -11 -29 -20 -42 -20 -14 0 -41
-16 -65 -40 -23 -22 -49 -40 -58 -40 -9 0 -43 -20 -74 -45 -32 -25 -65 -45
-73 -45 -9 0 -33 -16 -55 -36 -22 -20 -53 -41 -68 -48 -16 -6 -47 -28 -69 -49
-22 -20 -47 -37 -55 -37 -9 0 -28 -12 -44 -27 -74 -71 -156 -139 -183 -151
-36 -15 -649 -628 -649 -649 0 -18 -29 -54 -109 -138 -32 -33 -61 -71 -64 -85
-3 -14 -22 -41 -41 -60 -18 -20 -41 -51 -49 -70 -9 -19 -36 -57 -60 -84 -40
-44 -46 -48 -75 -41 l-32 7 0 143 c0 134 1 143 20 148 18 5 20 14 20 76 0 61
3 73 25 97 19 21 25 38 25 75 0 38 4 51 20 59 15 8 20 21 20 54 0 28 7 52 20
69 11 14 20 34 20 45 0 10 11 31 25 46 17 18 25 39 25 62 0 21 9 47 20 61 11
14 20 35 20 45 0 11 11 33 25 50 14 16 25 38 25 49 0 10 9 28 20 39 11 11 20
29 20 39 0 11 5 23 11 26 5 4 20 30 33 59 13 29 37 68 55 88 17 20 31 44 31
55 0 11 9 28 20 38 11 10 20 28 20 40 0 13 7 29 16 36 9 8 25 32 34 55 10 23
32 57 49 76 17 20 31 43 31 51 0 9 11 29 25 45 14 17 25 35 25 42 0 15 100
140 112 140 4 0 11 12 14 28 4 15 26 51 50 81 24 29 44 58 44 64 0 11 57 83
102 129 16 16 28 34 28 40 0 15 63 91 141 169 36 37 69 79 73 94 9 36 552 580
598 600 19 7 72 50 119 94 46 44 92 81 101 81 9 0 50 29 90 65 40 36 81 65 90
65 9 0 29 11 44 25 15 14 37 25 50 25 13 0 27 6 31 14 11 20 78 64 108 72 13
3 31 14 41 25 9 10 27 19 39 19 12 0 30 9 40 20 10 11 27 20 38 20 10 0 32 10
49 21 16 12 50 24 74 27 30 3 48 11 55 23 6 12 21 19 38 19 16 0 40 9 54 20
14 11 40 20 60 20 19 0 45 8 58 19 15 11 50 21 94 26 41 4 77 14 88 23 15 13
50 17 177 22 108 3 163 9 172 18 7 7 39 12 78 12 39 0 71 -5 78 -12 9 -9 72
-14 210 -18 159 -4 203 -8 223 -21 17 -12 61 -18 154 -24 99 -5 136 -11 155
-25 17 -12 52 -19 113 -23 61 -3 94 -10 106 -21 12 -11 37 -16 83 -16 52 0 68
-4 83 -20 15 -16 31 -20 86 -20 57 0 72 -4 97 -25 25 -21 40 -25 94 -25 51 0
69 -4 82 -19 12 -13 36 -20 82 -24 36 -2 72 -11 82 -20 9 -8 39 -18 67 -22 27
-4 60 -15 73 -26 14 -10 34 -19 45 -19 32 0 87 59 87 92 0 16 7 31 19 37 10 6
22 23 26 38 3 16 24 49 46 75 21 26 39 55 39 65 0 10 20 40 45 66 26 29 45 58
45 72 0 12 7 25 15 28 8 4 21 21 28 39 8 18 39 63 71 100 31 37 56 71 56 77 0
13 72 102 133 164 26 26 47 55 47 65 0 19 339 369 475 491 44 39 87 71 95 71
8 0 33 19 55 41 22 22 52 43 66 46 15 3 44 22 65 44 22 21 49 38 61 39 12 0
30 9 40 19 26 28 91 71 107 71 7 0 25 9 39 20 14 11 32 20 40 20 8 0 25 9 39
19 13 11 45 22 70 26 26 4 55 16 64 26 12 13 31 19 62 19 31 0 52 6 66 19 15
14 41 21 89 25 43 3 76 11 87 21 11 10 45 18 90 22 55 5 74 10 83 25 11 17 35
18 452 18 418 0 441 -1 452 -19z m-5746 -4087 c9 -8 32 -19 51 -24 19 -6 63
-36 99 -70 35 -33 70 -60 78 -60 17 0 171 -149 171 -166 0 -8 29 -46 64 -85
36 -39 68 -84 71 -99 3 -15 15 -36 26 -46 10 -9 19 -27 19 -40 0 -13 10 -33
23 -44 21 -20 22 -27 22 -210 0 -182 -1 -189 -22 -212 -16 -17 -23 -37 -23
-65 0 -25 -7 -50 -20 -66 -11 -14 -20 -31 -20 -39 0 -8 -11 -29 -25 -48 -14
-19 -25 -41 -25 -49 0 -8 -18 -36 -39 -62 -22 -25 -43 -58 -46 -71 -4 -14 -24
-44 -46 -66 -21 -23 -39 -48 -39 -57 0 -17 -126 -161 -220 -250 -35 -33 -73
-70 -85 -82 -31 -32 -142 -34 -170 -3 -10 11 -23 20 -30 20 -22 0 -79 50 -277
244 -110 108 -206 196 -214 196 -8 0 -35 19 -59 41 -47 43 -75 46 -75 8 0 -11
-11 -34 -25 -51 -14 -16 -25 -36 -25 -45 0 -8 -9 -26 -20 -40 -11 -14 -20 -34
-20 -44 0 -10 -4 -21 -10 -24 -5 -3 -21 -30 -35 -58 -13 -29 -38 -67 -55 -85
-16 -18 -30 -40 -30 -49 0 -9 -20 -40 -45 -69 -25 -28 -45 -58 -45 -65 0 -6
-15 -31 -34 -54 -43 -52 -168 -175 -178 -175 -5 0 -8 -7 -8 -15 0 -12 -19 -15
-115 -15 l-115 0 -85 84 c-47 46 -96 87 -108 90 -13 3 -63 44 -112 90 -50 47
-97 85 -106 86 -9 0 -71 52 -137 116 -116 110 -122 118 -122 156 0 25 8 49 20
65 11 14 20 36 20 48 0 12 8 30 19 39 10 9 21 37 25 62 6 44 35 97 69 122 11
8 17 27 17 51 0 22 8 48 19 62 10 13 22 35 26 49 4 14 16 36 26 49 11 13 19
30 19 37 0 17 47 87 66 97 8 4 14 20 14 36 0 16 10 37 25 51 14 13 25 33 25
45 0 12 9 30 20 40 11 10 20 27 20 38 0 10 11 32 25 49 14 16 25 37 25 46 0 8
18 37 40 63 22 26 40 56 40 66 0 10 20 40 45 68 25 27 45 54 45 59 0 6 17 27
37 48 35 36 41 38 98 38 49 0 66 -4 80 -20 10 -11 27 -20 37 -20 11 0 44 -20
75 -45 30 -25 60 -45 66 -45 17 0 337 -322 337 -340 1 -8 28 -43 61 -78 55
-58 62 -63 87 -54 21 6 28 16 30 40 2 18 11 37 21 44 10 7 22 24 26 38 4 14
25 46 46 72 21 26 39 54 39 63 0 10 11 30 25 47 14 16 25 36 25 45 0 8 9 26
20 40 11 14 20 31 20 38 0 7 20 39 45 71 25 31 45 65 45 74 0 9 18 35 40 58
22 22 40 50 40 60 0 10 35 56 77 102 l77 82 60 -6 c33 -3 67 -13 77 -22z"/>
<path d="M9105 8539 c-22 -14 -48 -19 -102 -19 -62 0 -76 -3 -101 -25 -17 -14
-40 -25 -52 -25 -12 0 -33 -9 -47 -20 -15 -12 -41 -20 -63 -20 -24 0 -43 -7
-55 -20 -10 -11 -28 -20 -40 -20 -11 0 -36 -11 -55 -25 -19 -14 -41 -25 -50
-25 -9 0 -25 -9 -35 -20 -10 -11 -26 -20 -37 -20 -10 0 -43 -20 -74 -45 -30
-25 -60 -45 -66 -45 -5 0 -32 -18 -58 -40 -26 -22 -56 -40 -66 -40 -23 0 -564
-544 -564 -568 0 -10 -29 -49 -63 -87 -46 -50 -66 -81 -71 -108 -10 -52 5 -67
64 -67 34 0 52 -5 65 -20 13 -14 31 -20 60 -20 26 0 51 -7 66 -19 15 -12 50
-22 92 -26 42 -5 76 -15 91 -26 18 -14 41 -19 89 -19 49 0 68 -4 81 -19 14
-15 37 -19 152 -24 111 -4 139 -9 156 -23 18 -17 44 -18 313 -19 263 0 295 2
312 17 15 14 46 19 148 24 105 5 135 10 157 25 19 13 44 19 86 19 44 0 66 5
85 20 14 11 40 20 59 20 18 0 48 9 66 20 19 12 61 23 95 27 41 4 68 12 80 24
12 13 32 19 58 19 29 0 50 7 71 25 16 14 39 25 50 25 11 0 31 9 45 20 14 11
33 20 43 20 10 0 29 9 43 20 14 11 40 20 61 20 23 0 44 8 62 25 15 14 37 25
49 25 12 0 30 9 40 20 10 11 30 20 45 20 15 0 35 9 45 20 10 11 28 20 40 20
12 0 30 9 39 19 10 11 29 22 43 26 15 3 38 15 51 26 14 10 33 19 43 19 11 0
27 9 36 20 10 11 27 20 40 20 12 0 34 11 49 25 15 14 36 25 47 25 10 0 41 18
67 40 26 22 54 40 62 40 8 0 29 11 48 25 19 14 41 25 51 25 9 0 23 9 31 21 11
18 23 21 71 20 41 0 57 3 57 13 0 19 -100 116 -120 116 -10 0 -44 20 -76 45
-31 25 -65 45 -74 45 -9 0 -25 9 -35 20 -10 11 -28 20 -40 20 -12 0 -30 9 -40
20 -10 11 -27 20 -38 20 -10 0 -32 11 -49 25 -16 14 -40 25 -52 25 -13 0 -31
9 -41 20 -10 11 -28 20 -40 20 -12 0 -30 9 -40 20 -10 11 -29 20 -43 20 -14 0
-35 9 -47 20 -12 11 -41 23 -66 26 -24 3 -53 15 -65 25 -14 13 -35 19 -66 19
-32 0 -50 6 -63 20 -13 14 -31 20 -61 20 -31 0 -51 7 -72 25 -27 22 -39 25
-114 25 -72 0 -88 3 -103 20 -17 19 -30 20 -374 19 -333 0 -358 -2 -386 -20z"/>
<path d="M7383 7154 c-9 -23 13 -40 32 -24 8 7 15 19 15 26 0 19 -39 18 -47
-2z"/>
</g>
</svg>
