<?xml version="1.0" standalone="no"?>
<!DOCTYPE svg PUBLIC "-//W3C//DTD SVG 20010904//EN"
 "http://www.w3.org/TR/2001/REC-SVG-20010904/DTD/svg10.dtd">
<svg version="1.0" xmlns="http://www.w3.org/2000/svg"
 width="1417.000000pt" height="1417.000000pt" viewBox="0 0 1417.000000 1417.000000"
 preserveAspectRatio="xMidYMid meet">
<metadata>
Created by potrace 1.13, written by Peter Selinger 2001-2015
</metadata>
<g transform="translate(0.000000,1417.000000) scale(0.100000,-0.100000)"
fill="#000000" stroke="none">
<path d="M0 7085 l0 -7085 7085 0 7085 0 0 7085 0 7085 -7085 0 -7085 0 0
-7085z m9603 4456 c102 -56 96 -56 927 -56 710 0 770 1 830 18 36 10 84 29
107 43 23 13 58 24 77 24 l36 0 0 -271 0 -270 -26 3 c-21 3 -29 13 -48 69 -44
127 -108 192 -228 232 -56 18 -93 21 -330 25 l-268 4 0 -884 c0 -485 5 -934
10 -996 12 -148 38 -210 101 -240 24 -12 68 -24 97 -28 51 -6 52 -7 52 -40 l0
-34 -415 0 -415 0 0 34 c0 33 2 34 47 41 108 16 159 55 190 148 16 48 18 126
21 1025 l3 972 -228 0 c-242 0 -319 -10 -410 -50 -87 -38 -142 -114 -165 -226
-10 -53 -12 -54 -44 -54 l-34 0 0 270 0 270 30 0 c17 0 54 -13 83 -29z m-4742
-1071 c192 -569 365 -1068 384 -1107 50 -102 97 -133 223 -149 51 -6 52 -7 52
-40 l0 -34 -410 0 -410 0 0 34 c0 33 2 34 48 41 108 16 147 53 145 139 -1 36
-36 153 -116 391 l-114 340 -373 0 -373 0 -89 -265 c-49 -146 -98 -298 -109
-339 -44 -170 -11 -241 124 -266 34 -7 37 -10 37 -41 l0 -34 -300 0 -300 0 0
34 c0 34 1 34 71 56 93 28 153 83 203 185 30 62 374 1067 641 1875 37 113 70
209 72 213 3 4 59 6 125 5 l121 -3 348 -1035z m3754 1030 c3 -5 163 -474 354
-1042 191 -568 362 -1060 379 -1093 51 -101 104 -137 220 -151 l62 -7 0 -33 0
-34 -415 0 -415 0 0 34 c0 32 2 34 45 39 100 14 155 63 155 137 0 19 -53 193
-118 385 l-117 350 -372 3 c-205 1 -373 1 -373 -1 0 -2 -45 -136 -99 -298 -54
-162 -105 -328 -112 -369 -11 -69 -11 -79 8 -121 22 -50 58 -73 131 -85 40 -6
42 -8 42 -40 l0 -34 -305 0 -305 0 0 35 c0 32 3 35 43 45 69 17 145 60 178
101 16 21 47 75 68 121 21 46 188 530 371 1076 l333 992 118 0 c66 0 120 -4
124 -10z m-7155 -54 c0 -33 -1 -34 -50 -41 -67 -9 -130 -43 -158 -84 -52 -79
-55 -106 -60 -538 l-4 -403 637 0 636 0 -3 413 c-4 353 -7 419 -21 463 -31 93
-83 135 -184 149 -52 7 -53 7 -53 41 l0 34 420 0 420 0 0 -34 c0 -33 -2 -34
-47 -41 -102 -15 -160 -57 -188 -135 -29 -81 -34 -236 -34 -960 0 -724 5 -879
34 -960 28 -78 88 -123 184 -136 50 -6 51 -7 51 -40 l0 -34 -420 0 -420 0 0
35 c0 28 4 35 20 35 60 0 127 24 161 59 69 69 72 92 77 569 l3 422 -633 -2
-633 -3 -3 -350 c-2 -333 4 -464 28 -547 22 -77 91 -128 193 -143 45 -7 47 -8
47 -41 l0 -34 -425 0 -425 0 0 34 c0 33 1 34 53 40 100 14 151 49 184 127 31
71 34 189 31 1024 -3 768 -5 844 -21 892 -32 94 -84 134 -196 149 -50 6 -51 7
-51 40 l0 34 425 0 425 0 0 -34z m4830 1 l0 -33 -80 -12 c-134 -19 -176 -60
-147 -145 13 -40 486 -777 497 -776 7 0 369 579 402 642 78 151 51 265 -68
283 -42 6 -44 8 -44 40 l0 34 325 0 325 0 0 -35 c0 -32 -3 -35 -37 -40 -188
-32 -204 -49 -576 -638 l-288 -456 3 -448 c4 -386 7 -455 21 -499 31 -93 85
-136 186 -150 50 -6 51 -7 51 -40 l0 -34 -430 0 -430 0 0 34 c0 34 0 34 58 41
68 8 118 28 150 58 72 66 81 142 82 636 l0 403 -232 362 c-127 198 -262 406
-298 461 -127 189 -192 243 -324 265 l-66 12 0 34 0 34 460 0 460 0 0 -33z
m6340 -1 c0 -33 -2 -34 -47 -41 -111 -16 -160 -56 -190 -153 -17 -53 -18 -126
-18 -947 0 -839 1 -893 18 -943 33 -93 82 -131 190 -147 45 -7 47 -8 47 -41
l0 -34 -420 0 -420 0 0 35 c0 28 4 35 20 35 64 0 126 24 166 64 75 75 74 61
74 1034 0 533 -4 869 -10 903 -24 124 -70 172 -185 191 -65 11 -65 11 -65 44
l0 34 420 0 420 0 0 -34z m-6197 -3291 c30 -12 93 -15 347 -15 254 0 317 3
347 15 63 26 63 26 63 -90 0 -58 -3 -105 -8 -105 -4 0 -16 19 -27 42 -31 66
-67 81 -202 86 l-113 5 0 -369 c0 -203 5 -387 10 -409 10 -44 32 -65 67 -65
16 0 23 -6 23 -20 0 -20 -5 -20 -162 -18 -137 3 -163 5 -163 18 0 8 12 17 29
20 16 3 38 18 50 33 20 28 21 40 24 418 l3 389 -88 0 c-142 0 -200 -25 -223
-96 -7 -19 -18 -34 -26 -34 -11 0 -14 21 -14 105 0 116 0 116 63 90z m-4531
-6 c154 -33 294 -152 348 -297 27 -71 37 -197 21 -274 -65 -309 -407 -475
-699 -338 -71 33 -171 123 -209 188 -88 149 -85 369 7 512 63 98 192 188 300
209 66 13 171 13 232 0z m6461 -4 c89 -23 156 -62 224 -131 289 -288 103 -782
-307 -820 -322 -30 -581 244 -532 562 13 84 46 161 95 223 37 47 126 117 175
138 103 43 242 55 345 28z m-2226 -317 c61 -178 125 -367 143 -421 37 -113 66
-154 113 -159 20 -2 32 -8 32 -18 0 -13 -26 -15 -162 -18 -158 -2 -163 -2
-163 18 0 14 7 20 23 20 13 0 32 9 43 21 18 20 18 23 -31 167 l-50 147 -145 0
-144 0 -43 -125 c-24 -69 -43 -137 -43 -152 0 -31 23 -58 51 -58 12 0 19 -7
19 -20 0 -19 -7 -20 -120 -20 -113 0 -120 1 -120 20 0 13 7 20 19 20 27 0 69
36 90 78 10 21 78 214 151 430 l133 392 47 0 48 0 109 -322z m-4977 227 c0
-64 -3 -85 -13 -85 -8 0 -19 17 -25 38 -22 72 -34 77 -213 80 l-159 4 0 -191
0 -191 139 0 c158 0 185 10 197 75 3 20 12 35 20 35 11 0 14 -26 14 -135 0
-109 -3 -135 -14 -135 -8 0 -17 15 -20 34 -12 63 -31 71 -192 74 l-144 3 0
-143 c1 -79 5 -163 9 -188 10 -49 40 -80 77 -80 17 0 24 -6 24 -20 0 -20 -5
-20 -167 -18 -141 3 -168 5 -168 18 0 8 12 17 29 20 16 3 38 18 50 33 20 28
21 38 21 395 0 278 -3 372 -13 389 -7 12 -30 28 -52 34 -22 7 -40 18 -40 26 0
11 59 13 320 13 l320 0 0 -85z m1610 72 c0 -8 -18 -19 -41 -26 -68 -21 -71
-34 -67 -384 3 -291 4 -304 25 -344 78 -146 308 -150 429 -9 l34 40 0 308 c0
350 -3 367 -64 388 -20 6 -36 18 -36 26 0 12 29 14 165 14 136 0 165 -2 165
-14 0 -8 -16 -20 -36 -26 -62 -21 -64 -34 -64 -423 0 -225 4 -355 11 -376 12
-34 35 -51 68 -51 14 0 21 -6 21 -20 0 -19 -7 -20 -115 -20 l-115 0 0 61 0 61
-37 -34 c-55 -48 -100 -74 -167 -93 -123 -36 -267 1 -340 87 -65 76 -69 98
-75 449 -7 350 -7 350 -72 363 -17 3 -29 12 -29 21 0 13 24 15 170 15 136 0
170 -3 170 -13z m1221 -339 l284 -352 3 292 c3 339 0 354 -67 372 -24 6 -41
17 -41 25 0 13 24 15 140 15 116 0 140 -2 140 -15 0 -8 -16 -19 -40 -25 -76
-21 -75 -11 -78 -478 -3 -354 -5 -413 -17 -410 -8 2 -159 180 -335 397 l-321
393 3 -355 c3 -398 1 -384 75 -396 24 -4 38 -12 38 -21 0 -12 -24 -15 -142
-18 -138 -2 -143 -2 -143 18 0 15 7 20 29 20 47 0 70 27 81 95 12 73 12 583 1
644 -12 58 -40 94 -87 107 -22 6 -40 18 -42 27 -3 15 10 17 116 17 l120 0 283
-352z m1120 338 c263 -47 422 -267 388 -538 -22 -176 -137 -302 -324 -354 -47
-13 -120 -18 -337 -21 -278 -5 -278 -5 -278 16 0 15 6 21 21 21 33 0 56 17 68
51 7 21 11 152 11 381 0 390 -1 397 -65 418 -19 6 -35 18 -35 26 0 20 440 20
551 0z m2499 -1 c0 -9 -12 -18 -30 -22 -17 -3 -40 -17 -51 -31 -19 -25 -20
-38 -17 -405 l3 -379 24 -19 c13 -10 34 -19 47 -19 17 0 24 -6 24 -20 0 -20
-5 -20 -167 -18 -139 3 -168 5 -168 18 0 8 13 17 31 20 44 10 52 16 64 58 15
54 12 697 -3 742 -10 28 -20 38 -54 50 -24 8 -43 20 -43 27 0 10 38 13 170 13
146 0 170 -2 170 -15z m1710 -277 c129 -161 259 -321 288 -357 l53 -65 -3 306
c-3 292 -4 308 -24 334 -11 16 -35 32 -52 36 -18 5 -32 15 -32 23 0 13 23 15
140 15 116 0 140 -3 140 -15 0 -8 -14 -17 -34 -21 -19 -3 -45 -17 -58 -31
l-23 -25 -3 -419 c-2 -350 -5 -419 -17 -419 -7 0 -159 179 -337 397 l-323 397
-3 -320 c-1 -175 0 -334 3 -353 8 -45 46 -81 85 -81 23 0 30 -4 30 -20 0 -19
-7 -20 -140 -20 -133 0 -140 1 -140 20 0 15 7 20 28 20 34 1 58 19 72 54 6 17
10 155 10 362 0 374 -3 392 -62 418 -18 8 -41 17 -50 20 -10 3 -18 12 -18 21
0 13 19 15 118 15 l117 0 235 -292z"/>
<path d="M4127 10731 c-86 -263 -157 -484 -157 -490 0 -8 92 -11 320 -11 176
0 320 4 320 8 0 5 -73 225 -163 490 l-163 482 -157 -479z"/>
<path d="M8227 10721 c-86 -263 -157 -482 -157 -485 0 -3 144 -6 320 -6 247 0
320 3 320 12 0 16 -311 940 -320 950 -3 5 -77 -208 -163 -471z"/>
<path d="M1682 8102 c-102 -37 -175 -121 -214 -246 -33 -106 -31 -273 4 -373
48 -135 134 -220 246 -244 182 -37 333 70 396 280 21 70 21 237 1 314 -32 121
-106 220 -195 260 -64 29 -171 33 -238 9z"/>
<path d="M8145 8107 c-66 -22 -99 -43 -144 -92 -75 -81 -111 -192 -111 -338 1
-198 77 -350 208 -414 76 -37 182 -39 257 -5 128 58 211 197 222 372 14 210
-64 388 -201 457 -61 31 -169 40 -231 20z"/>
<path d="M5877 7837 c-31 -95 -57 -176 -57 -180 0 -4 54 -7 120 -7 66 0 120 3
120 7 0 15 -115 353 -120 353 -3 0 -31 -78 -63 -173z"/>
<path d="M4792 7705 l3 -395 28 -27 c27 -27 31 -28 135 -28 141 1 205 21 278
87 66 61 101 132 116 238 23 154 -21 316 -110 407 -80 82 -177 113 -354 113
l-99 0 3 -395z"/>
</g>
</svg>
