<?xml version="1.0" standalone="no"?>
<!DOCTYPE svg PUBLIC "-//W3C//DTD SVG 20010904//EN"
 "http://www.w3.org/TR/2001/REC-SVG-20010904/DTD/svg10.dtd">
<svg version="1.0" xmlns="http://www.w3.org/2000/svg"
 width="272.000000pt" height="146.000000pt" viewBox="0 0 272.000000 146.000000"
 preserveAspectRatio="xMidYMid meet">
<metadata>
Created by potrace 1.10, written by Peter Selinger 2001-2011
</metadata>
<g transform="translate(0.000000,146.000000) scale(0.100000,-0.100000)"
fill="#5c393c" stroke="none">
<path d="M1795 1435 c-123 -27 -210 -78 -313 -184 -57 -58 -172 -216 -184
-252 -3 -10 -22 -8 -88 10 -118 32 -293 61 -372 61 -174 0 -381 -118 -542
-309 -163 -194 -286 -425 -286 -537 l0 -46 45 61 c206 280 534 453 829 438 89
-4 253 -40 272 -59 3 -3 -2 -43 -10 -88 -22 -115 -20 -280 3 -280 3 0 31 73
61 163 29 89 55 164 56 165 1 2 40 -6 86 -18 187 -48 470 -35 649 30 156 57
254 127 476 342 73 70 157 144 188 164 30 20 55 40 55 44 0 4 -30 14 -67 23
-43 11 -160 63 -318 142 -164 83 -268 129 -304 135 -71 13 -162 11 -236 -5z
m253 -30 c62 -19 180 -74 322 -151 58 -31 141 -72 185 -90 44 -18 80 -37 80
-42 0 -5 -28 -32 -61 -61 -34 -28 -64 -58 -68 -66 -5 -14 -11 -13 -48 6 -24
12 -66 36 -94 54 -43 28 -54 31 -65 20 -30 -28 -229 -126 -319 -156 -132 -44
-273 -51 -410 -19 -52 12 -103 23 -114 24 -21 1 -96 -121 -145 -237 -16 -38
-42 -85 -59 -103 -19 -20 -39 -61 -53 -106 -12 -40 -26 -77 -30 -82 -9 -10 -3
87 9 162 12 72 -1 87 -108 119 -115 34 -258 41 -371 19 -208 -42 -423 -165
-573 -327 -32 -34 -59 -59 -62 -57 -8 8 18 69 64 152 162 294 388 506 599 561
31 8 85 15 119 15 69 0 250 -30 359 -58 42 -11 79 -16 91 -11 12 4 36 31 54
61 47 73 142 191 192 236 86 78 141 107 268 141 55 15 181 12 238 -4z m343
-391 c51 -25 88 -49 83 -53 -5 -4 -56 -50 -114 -102 -173 -156 -287 -224 -449
-266 -130 -34 -345 -42 -479 -19 -50 9 -103 16 -117 16 -14 0 -25 3 -25 6 0
25 161 314 175 314 3 0 16 -7 28 -15 43 -28 174 -48 287 -43 83 4 124 12 196
36 122 41 302 131 310 154 3 10 7 18 10 18 2 0 45 -21 95 -46z"/>
<path d="M1787 1239 c-101 -24 -229 -111 -307 -210 -22 -28 -40 -61 -40 -72 1
-19 5 -16 32 18 209 267 456 318 758 159 68 -35 95 -40 72 -11 -17 20 -182 96
-244 113 -58 15 -211 17 -271 3z"/>
<path d="M637 458 c-19 -29 -47 -75 -62 -103 -16 -27 -29 -51 -31 -53 -1 -2
-33 29 -71 67 -79 81 -108 90 -142 43 -40 -56 -140 -265 -133 -278 14 -25 157
-134 175 -134 26 0 70 50 113 127 20 35 40 63 45 61 4 -2 40 -31 78 -65 38
-35 76 -63 85 -63 42 0 156 183 156 250 0 63 -90 175 -157 195 -19 5 -28 -2
-56 -47z m91 -8 c39 -24 92 -104 92 -140 0 -15 -14 -53 -30 -86 -33 -64 -43
-79 -77 -108 -21 -18 -24 -18 -48 -2 -15 10 -45 35 -67 57 -22 21 -50 39 -61
39 -21 0 -67 -36 -67 -52 0 -15 -79 -126 -92 -130 -7 -3 -43 22 -80 54 -64 58
-66 60 -57 93 11 37 92 190 117 218 8 9 19 17 24 17 5 0 40 -29 78 -65 38 -36
74 -65 80 -65 17 0 45 33 80 96 34 61 59 94 69 94 3 0 21 -9 39 -20z"/>
</g>
</svg>
