<?xml version="1.0" standalone="no"?>
<!DOCTYPE svg PUBLIC "-//W3C//DTD SVG 20010904//EN"
 "http://www.w3.org/TR/2001/REC-SVG-20010904/DTD/svg10.dtd">
<svg version="1.0" xmlns="http://www.w3.org/2000/svg"
 width="400.000000pt" height="400.000000pt" viewBox="0 0 400.000000 400.000000"
 preserveAspectRatio="xMidYMid meet">
<metadata>
Created by potrace 1.13, written by Peter Selinger 2001-2015
</metadata>
<g transform="translate(0.000000,400.000000) scale(0.100000,-0.100000)"
fill="#000000" stroke="none">
<path d="M2188 3845 c-2 -2 -24 -6 -48 -8 -80 -8 -140 -20 -140 -27 0 -4 -10
-7 -22 -7 -29 1 -136 -32 -165 -51 -13 -8 -23 -12 -23 -9 0 17 -158 -71 -198
-110 -7 -7 -18 -13 -24 -13 -15 0 -122 -112 -201 -209 -29 -36 -58 -92 -52
-101 3 -5 1 -11 -5 -15 -6 -4 -8 -11 -5 -16 4 -5 2 -9 -3 -9 -24 0 -47 -166
-56 -403 -2 -48 -6 -90 -9 -94 -4 -3 0 -18 9 -34 13 -27 12 -33 -8 -30 -13 2
-9 -7 17 -35 18 -19 23 -33 19 -48 -6 -19 -5 -20 11 -6 17 13 18 13 13 -2 -4
-9 -1 -36 7 -60 7 -24 11 -57 9 -73 -7 -62 -18 -262 -18 -310 1 -27 -1 -44 -3
-38 -4 10 -10 10 -25 2 -12 -6 -41 -9 -67 -6 -42 5 -44 4 -21 -9 14 -7 42 -13
63 -14 34 0 37 -2 37 -30 0 -38 -32 -54 -80 -40 -22 6 -38 5 -51 -3 -12 -8
-22 -8 -29 -1 -6 6 -41 7 -97 2 -55 -5 -91 -4 -99 3 -17 14 -66 -30 -84 -75
-10 -28 -18 -35 -32 -30 -20 6 -25 -20 -8 -46 8 -13 10 -12 10 3 0 32 17 9 29
-39 7 -26 21 -64 32 -85 28 -56 14 -48 -16 9 -21 38 -25 41 -20 17 13 -60 71
-138 249 -334 l31 -33 -38 25 c-34 23 -85 28 -72 7 3 -5 1 -11 -5 -15 -6 -4
-8 -10 -5 -15 3 -4 -3 -6 -12 -4 -14 4 -18 -1 -19 -20 -1 -15 2 -26 6 -26 4 0
8 -12 8 -26 -1 -15 3 -29 8 -33 16 -11 49 -55 37 -47 -26 15 -12 -7 41 -62 30
-31 94 -99 143 -151 48 -52 112 -118 141 -148 28 -29 52 -58 52 -63 0 -6 9
-20 20 -32 10 -12 17 -25 14 -30 -3 -4 -1 -8 4 -8 14 0 52 -76 44 -86 -4 -4 1
-4 10 -1 13 5 19 0 24 -18 3 -14 11 -22 19 -19 7 3 19 -5 26 -18 16 -31 45
-58 63 -58 7 0 16 -7 20 -15 3 -8 12 -15 20 -15 8 0 23 -11 34 -25 11 -14 23
-25 26 -25 3 0 26 -16 51 -35 29 -21 52 -32 62 -28 11 4 14 3 9 -6 -6 -9 0
-10 19 -5 18 4 30 2 36 -7 8 -12 11 -12 20 1 8 11 12 12 16 3 6 -16 53 -17 53
-2 0 6 -6 9 -14 6 -10 -4 -12 0 -9 14 8 29 19 32 48 13 24 -16 25 -15 25 4 0
11 6 25 14 31 15 13 46 -25 206 -253 87 -123 98 -154 77 -213 -8 -22 -6 -23
56 -23 45 0 68 5 77 15 6 8 17 13 23 12 7 -1 11 6 11 15 -1 11 4 14 14 11 9
-4 13 -2 9 4 -4 6 -1 14 5 17 11 5 11 7 0 12 -6 3 -10 10 -7 14 3 5 -4 16 -16
24 l-22 15 24 20 c17 14 26 16 32 8 6 -8 7 -4 4 9 -2 11 1 21 7 22 6 0 38 7
71 16 33 8 62 13 66 10 9 -5 19 21 19 47 0 24 7 24 48 -1 17 -11 32 -15 32
-10 0 5 -23 21 -51 35 -33 17 -49 22 -48 13 7 -52 -1 -65 -38 -71 -21 -3 -53
-9 -72 -13 l-34 -7 7 94 c13 183 17 200 37 194 11 -4 19 -2 19 4 0 6 -7 11
-15 11 -7 0 -19 8 -24 18 -9 15 -12 15 -22 2 -9 -13 -10 -12 -5 3 3 10 6 28 6
40 1 18 3 16 14 -9 15 -35 36 -53 36 -32 0 10 3 9 11 -2 7 -10 9 -11 7 -2 -2
8 -7 13 -12 12 -18 -4 -26 28 -26 113 0 60 3 86 11 82 7 -5 8 5 4 32 -5 27 -4
34 4 24 8 -12 11 -9 17 15 4 16 13 36 21 45 7 9 11 22 8 30 -6 17 51 83 65 74
15 -9 12 -26 -7 -48 -14 -16 -15 -19 -3 -15 8 2 22 16 30 31 13 24 13 28 -4
40 -19 14 -18 15 2 35 12 12 28 22 36 22 10 0 14 10 14 30 -1 18 9 44 22 62
12 17 17 27 10 23 -8 -5 -11 -3 -8 6 3 8 11 14 19 14 19 0 30 37 35 115 5 86
9 106 31 165 12 31 19 71 18 105 -1 32 1 47 5 35 6 -15 9 -8 15 28 4 26 5 58
3 72 -3 15 2 32 12 43 10 10 24 36 31 58 7 21 22 55 33 74 10 19 21 50 23 69
2 18 10 46 18 62 8 15 15 35 15 43 0 8 8 22 17 31 18 19 27 63 28 143 0 43 3
52 18 52 10 0 21 -10 26 -22 7 -20 9 -17 9 15 l0 37 -46 2 c-26 1 -56 2 -66 2
-14 1 -24 15 -34 46 -19 57 -94 132 -153 153 -24 8 -36 16 -26 16 10 1 31 -6
47 -14 16 -8 45 -17 64 -21 35 -5 42 1 37 29 -1 5 9 5 21 1 20 -6 21 -5 10 9
-7 8 -11 20 -10 26 2 7 -19 21 -47 33 -27 12 -53 26 -56 31 -3 5 -9 8 -13 8
-18 -3 -26 0 -41 16 -11 10 -19 13 -23 6 -5 -7 -25 -8 -62 -2 -63 10 -240 -5
-251 -22 -5 -8 -8 -8 -10 -1 -3 7 -14 6 -34 -4 -39 -18 -44 -67 -8 -72 l21 -3
-21 -62 c-12 -34 -22 -63 -22 -64 0 -1 -18 2 -40 7 -22 5 -65 10 -96 12 l-56
3 19 30 c10 16 18 42 18 57 0 15 4 29 8 32 12 7 7 48 -9 74 -24 40 -153 95
-247 106 -15 1 -37 8 -50 15 -17 9 -22 9 -22 -1 0 -8 -3 -9 -8 -3 -4 6 -40 11
-80 12 -64 2 -72 0 -62 -12 11 -13 4 -15 -46 -16 -33 -1 -68 -1 -79 0 -14 0
-12 -2 8 -10 33 -13 35 -29 5 -30 -16 -1 -11 -5 16 -13 40 -13 61 -36 32 -36
-9 0 -16 -7 -16 -15 0 -20 5 -19 38 5 15 10 41 21 57 24 29 6 29 5 -3 -6 -36
-12 -122 -83 -122 -101 0 -6 17 5 38 25 38 36 80 63 88 55 2 -2 -16 -17 -42
-33 -55 -35 -93 -94 -60 -94 7 0 17 -8 20 -17 20 -56 62 -93 88 -77 6 4 9 1 6
-7 -3 -8 6 -19 21 -27 14 -7 41 -23 60 -37 24 -18 41 -23 60 -19 76 17 101 26
132 47 30 20 36 21 51 8 16 -14 16 -15 0 -27 -14 -10 -15 -15 -3 -38 8 -14 19
-22 25 -19 6 4 -1 -9 -15 -28 -15 -18 -48 -45 -75 -59 -67 -34 -197 -35 -261
-2 -127 66 -182 185 -141 302 9 26 9 35 -1 38 -8 3 -3 15 13 37 24 32 25 33 6
38 -21 5 -40 -17 -40 -48 0 -12 -5 -15 -17 -10 -10 3 -40 9 -68 12 -27 3 -52
10 -55 14 -3 5 -19 5 -34 1 -23 -6 -26 -10 -14 -19 8 -7 41 -19 74 -28 112
-29 111 -28 106 -94 -8 -109 56 -203 177 -260 109 -51 243 -28 327 56 21 21
42 38 47 38 12 0 37 36 37 54 0 11 -4 10 -16 -5 -14 -18 -15 -18 -10 -1 3 11
9 31 13 45 8 36 19 42 81 42 55 0 152 -34 152 -52 0 -6 -7 -4 -16 3 -15 12
-16 11 -9 -10 5 -16 4 -21 -4 -17 -7 5 -11 -6 -11 -33 0 -44 54 -158 97 -203
72 -75 218 -94 331 -43 34 15 77 44 94 63 35 40 67 106 68 138 0 17 5 20 31
16 l30 -4 -7 -57 c-7 -60 -58 -221 -91 -286 -11 -22 -26 -58 -33 -80 -7 -22
-23 -62 -35 -90 -12 -27 -25 -57 -28 -65 -4 -12 -6 -11 -6 3 -1 20 -17 23 -24
5 -3 -7 -6 1 -6 19 -1 38 -25 36 -35 -3 -7 -27 -24 -32 -32 -9 -6 14 -8 14
-18 0 -9 -12 -11 -5 -10 32 0 36 -5 53 -20 69 -12 11 -38 39 -60 63 -27 31
-41 39 -46 30 -5 -7 -2 -22 7 -35 11 -17 12 -28 4 -41 -6 -10 -11 -15 -11 -11
0 4 -15 1 -34 -7 -30 -13 -36 -13 -46 0 -7 8 -19 15 -26 15 -8 0 -14 5 -14 11
0 8 -4 8 -12 2 -9 -6 -22 -5 -38 3 l-24 13 24 9 25 9 -32 17 c-40 20 -87 21
-117 0 -16 -10 -26 -12 -31 -5 -8 14 -42 14 -47 0 -2 -6 -23 5 -46 25 -40 33
-47 35 -90 29 -56 -7 -63 -11 -40 -24 16 -9 16 -11 1 -29 -12 -13 -21 -16 -27
-10 -14 14 -26 12 -24 -2 2 -9 -10 -13 -34 -13 -21 0 -38 3 -38 8 0 4 -4 5
-10 2 -5 -3 -10 -1 -10 5 0 7 -7 9 -16 6 -9 -4 -13 -2 -8 5 4 7 0 9 -12 5 -41
-12 -56 32 -22 66 10 10 16 23 13 28 -9 15 -53 1 -101 -32 -23 -15 -47 -28
-53 -28 -7 0 -22 -7 -35 -16 -23 -14 -26 -14 -44 7 -11 11 -25 18 -31 15 -7
-5 -8 -1 -4 10 4 12 2 15 -8 12 -8 -3 -22 -1 -32 4 -14 7 -19 3 -28 -19 -6
-16 -13 -22 -16 -15 -7 19 -24 14 -21 -5 2 -14 -3 -17 -20 -16 -13 2 -31 -1
-41 -7 -14 -7 -21 -4 -32 16 -11 22 -11 27 1 34 13 8 13 10 0 11 -8 1 -19 1
-23 0 -4 -1 -5 22 -1 51 11 89 7 138 -20 248 -13 49 -17 71 -22 120 -6 59 -6
76 1 189 2 40 6 76 9 79 3 3 -12 18 -34 34 -22 17 -40 34 -40 38 0 5 -9 12
-20 15 -11 3 -20 11 -20 16 0 18 21 8 55 -26 42 -42 77 -63 69 -41 -3 8 0 24
6 36 13 23 4 64 -12 54 -6 -4 -5 3 2 16 8 15 8 20 1 16 -13 -9 -14 -4 -2 27
13 33 1 44 -16 15 l-12 -23 -1 23 c0 13 -4 20 -10 17 -5 -3 -10 -1 -10 6 0 7
-7 4 -15 -7 -12 -16 -14 -17 -15 -2 0 9 6 23 13 30 8 7 17 31 21 52 5 26 11
36 21 32 9 -3 12 0 8 9 -3 8 -9 12 -14 9 -5 -3 -9 1 -9 9 0 19 36 51 49 43 5
-4 13 -1 17 5 4 8 3 9 -4 5 -7 -4 -12 -1 -12 8 0 10 -6 13 -16 9 -14 -5 -15
-3 -5 15 9 17 9 22 0 22 -8 0 -8 4 -1 13 5 6 18 36 27 64 10 29 21 50 26 47 5
-3 9 2 9 10 0 8 7 22 16 30 9 9 17 23 18 30 1 8 8 21 15 30 7 8 10 20 6 26 -4
6 -1 9 6 8 7 -2 13 4 14 12 0 9 8 14 18 12 11 -2 17 4 17 18 0 11 6 20 14 20
8 0 20 14 28 30 7 17 16 30 20 30 4 0 20 11 35 25 46 40 48 42 61 37 7 -2 10
2 6 12 -4 11 0 16 12 16 34 0 83 24 87 42 4 14 12 17 29 14 56 -13 73 -11 72
5 -1 14 4 15 29 8 16 -5 33 -6 38 -3 4 2 12 -3 17 -12 10 -17 100 -57 112 -49
4 2 6 -6 5 -17 -2 -28 -20 -34 -41 -14 -8 9 -21 13 -27 9 -7 -4 -8 0 -4 11 4
10 3 15 -3 11 -15 -9 -12 -23 10 -45 15 -15 28 -18 52 -14 25 4 29 3 18 -5 -8
-6 -29 -11 -47 -11 -41 0 -49 -14 -20 -32 15 -11 47 -15 105 -14 60 1 82 -2
82 -11 0 -7 9 -13 20 -13 11 0 29 -8 40 -17 15 -14 17 -20 7 -32 -10 -12 -9
-13 8 -4 11 6 25 8 32 6 7 -2 21 0 32 6 15 9 20 8 23 -5 2 -13 6 -12 25 5 24
22 38 28 28 11 -9 -15 14 -40 31 -33 9 3 14 -1 14 -12 0 -9 5 -13 10 -10 6 3
10 19 10 35 0 25 3 28 27 26 22 -3 30 -10 37 -35 10 -34 32 -44 23 -10 -3 13
-1 19 6 16 7 -3 11 -9 10 -13 -1 -5 16 -9 38 -9 21 0 39 3 39 7 0 4 7 4 17 1
11 -4 14 -3 9 5 -7 12 5 16 33 13 7 -2 10 2 6 8 -3 7 0 8 10 5 8 -4 21 -2 28
4 6 6 26 9 44 8 23 -1 30 1 23 9 -6 7 -6 16 -2 20 4 5 1 5 -5 1 -7 -4 -20 -3
-29 2 -14 8 -14 10 1 22 11 9 19 10 23 3 4 -5 24 -13 45 -16 51 -8 99 -45 145
-115 65 -98 88 -145 106 -217 37 -148 38 -192 11 -385 -2 -14 -6 -43 -9 -65
-11 -82 -15 -106 -21 -115 -5 -8 -34 -200 -35 -229 0 -30 17 6 30 61 12 51 15
56 26 40 12 -16 13 -16 14 4 0 11 -5 25 -12 32 -9 9 -8 18 1 39 7 15 21 77 32
138 10 60 24 128 30 150 29 108 34 249 9 296 -7 11 -10 23 -7 25 16 16 -119
316 -170 380 -70 86 -187 197 -197 187 -3 -4 -6 -1 -6 5 0 7 -6 12 -14 12 -8
0 -16 4 -18 9 -4 10 -186 99 -214 104 -10 2 -26 7 -34 10 -53 23 -151 39 -251
42 -64 2 -119 2 -121 0z m682 -1376 c25 -11 56 -30 68 -42 91 -85 84 -239 -15
-326 -54 -48 -117 -71 -194 -71 -145 0 -251 88 -248 207 2 47 2 47 9 13 4 -19
8 -26 9 -16 0 11 9 28 18 38 16 18 18 17 53 -17 20 -20 50 -38 66 -40 16 -2
39 -6 51 -9 28 -6 119 39 156 76 16 16 38 28 53 28 21 0 25 4 21 20 -3 10 0
21 5 22 14 5 -37 64 -73 85 -26 15 -27 19 -12 25 13 6 10 7 -9 5 -16 -3 -28 0
-28 5 0 6 -28 8 -64 6 -35 -1 -62 0 -59 5 10 16 148 7 193 -14z m-895 -880 c8
-11 53 -33 72 -34 7 0 13 -4 13 -8 -1 -10 26 -37 37 -37 4 0 9 10 9 23 1 17
-7 27 -27 36 -16 7 -29 17 -29 22 0 16 40 9 89 -16 27 -13 51 -21 55 -18 3 4
15 -3 26 -15 12 -12 16 -22 10 -22 -24 0 -2 -25 31 -37 34 -12 34 -12 -19 -10
-30 1 -56 5 -58 9 -3 4 2 8 10 8 9 0 16 4 16 9 0 15 -25 20 -61 11 -24 -5 -27
-8 -11 -9 12 -1 22 -5 22 -10 0 -11 -67 3 -104 23 -16 8 -34 12 -40 10 -16 -6
-86 23 -86 36 0 5 -7 7 -15 4 -11 -5 -13 -2 -9 9 3 9 15 18 27 20 12 2 25 5
29 6 4 0 10 -4 13 -10z"/>
<path d="M760 2061 c-80 -56 -116 -78 -127 -74 -7 3 -13 -2 -13 -11 0 -9 -3
-16 -7 -16 -5 0 -9 -12 -9 -26 -1 -14 0 -23 3 -21 2 3 16 -6 30 -19 28 -26 43
-30 43 -13 0 5 23 34 50 63 28 29 50 57 50 62 0 5 21 24 47 42 l47 32 -44 -1
c-26 0 -56 -8 -70 -18z"/>
<path d="M6 1993 c-3 -3 -6 -453 -6 -1000 l0 -993 639 0 640 0 7 47 c3 27 15
64 25 83 17 32 18 33 18 10 0 -14 -8 -45 -19 -69 -29 -63 -27 -71 20 -71 34 0
41 4 46 25 7 26 20 33 26 13 6 -17 28 0 28 22 0 11 -9 24 -20 30 -21 11 -45
55 -41 77 3 18 -20 27 -30 12 -6 -9 -9 4 -9 37 0 38 -5 55 -20 69 -11 10 -20
15 -20 11 0 -4 -9 -2 -20 4 -15 8 -20 8 -20 -2 0 -8 -5 -6 -11 4 -5 10 -26 35
-45 55 -25 27 -33 44 -28 58 3 11 8 35 11 53 4 24 10 32 27 32 17 0 18 2 6 10
-13 9 -7 14 13 11 12 -2 8 30 -7 44 -8 8 -25 12 -41 9 -24 -4 -26 -3 -16 9 9
12 8 16 -4 21 -11 4 -14 2 -9 -6 4 -7 3 -8 -4 -4 -7 4 -12 14 -12 22 0 8 -5
12 -10 9 -6 -3 -13 1 -16 9 -3 9 -14 16 -23 16 -18 0 -91 131 -91 163 0 9 -9
21 -20 27 -10 6 -22 25 -25 44 -5 23 -12 33 -23 32 -10 -1 -16 6 -16 17 1 9
-4 17 -10 17 -7 0 -22 18 -34 39 -13 22 -47 65 -77 97 -30 31 -55 61 -55 67 0
9 -38 58 -86 108 -13 14 -22 32 -19 40 6 15 -125 159 -144 159 -18 0 -41 45
-51 103 -13 67 -38 126 -93 221 -53 91 -83 122 -127 124 -19 2 -44 11 -55 21
-42 40 -134 79 -149 64z"/>
<path d="M3245 393 c29 -200 45 -329 45 -358 l0 -35 254 0 255 0 -9 31 c-11
38 -38 60 -67 53 -17 -5 -34 10 -89 76 -77 93 -145 147 -242 192 -37 17 -84
42 -104 55 -21 12 -40 23 -43 23 -3 0 -3 -17 0 -37z"/>
</g>
</svg>
